<svg width="47" height="48" viewBox="0 0 47 48" fill="none" xmlns="http://www.w3.org/2000/svg">
<path d="M44.415 0H2.585C1.89942 0 1.24191 0.276473 0.757129 0.768597C0.272348 1.26072 0 1.92819 0 2.62415V45.0877C0 45.7837 0.272348 46.4512 0.757129 46.9433C1.24191 47.4354 1.89942 47.7119 2.585 47.7119H25.098V29.2235H18.988V22.0668H25.098V16.6992C24.9714 15.439 25.118 14.166 25.5274 12.9694C25.9368 11.7728 26.5991 10.6816 27.4679 9.77238C28.3367 8.86315 29.3909 8.15788 30.5566 7.70604C31.7224 7.2542 32.9713 7.06673 34.216 7.15679C36.0451 7.14536 37.8733 7.24094 39.6915 7.44306V13.8842H35.955C32.994 13.8842 32.43 15.3155 32.43 17.391V21.9952H39.48L38.5635 29.152H32.43V47.7119H44.415C44.7545 47.7119 45.0906 47.644 45.4042 47.5122C45.7179 47.3803 46.0028 47.187 46.2429 46.9433C46.4829 46.6996 46.6733 46.4103 46.8032 46.092C46.9331 45.7736 47 45.4324 47 45.0877V2.62415C47 2.27955 46.9331 1.93831 46.8032 1.61993C46.6733 1.30156 46.4829 1.01227 46.2429 0.768597C46.0028 0.524922 45.7179 0.331628 45.4042 0.199752C45.0906 0.067876 44.7545 0 44.415 0Z" fill="#222222"/>
</svg>
